{
	"asset":{
		"generator":"Khronos glTF Blender I/O v5.0.21",
		"version":"2.0"
	},
	"scene":0,
	"scenes":[
		{
			"name":"Scene",
			"nodes":[
				10,
				11
			]
		}
	],
	"nodes":[
		{
			"name":"Bone.05",
			"rotation":[
				0,
				0,
				-0.13465647399425507,
				0.9908923506736755
			],
			"scale":[
				1.0000001192092896,
				1,
				1
			],
			"translation":[
				-1.1175870895385742e-08,
				0.054850734770298004,
				0
			]
		},
		{
			"children":[
				0
			],
			"name":"Bone.00",
			"rotation":[
				0,
				0,
				0.15662682056427002,
				0.987657904624939
			],
			"scale":[
				0.9999999403953552,
				0.9999999403953552,
				1
			],
			"translation":[
				0,
				0.1131734848022461,
				0
			]
		},
		{
			"name":"Bone.01",
			"rotation":[
				0,
				0,
				-0.3494528532028198,
				0.9369539618492126
			],
			"translation":[
				1.862645149230957e-09,
				0.05370338261127472,
				0
			]
		},
		{
			"children":[
				2
			],
			"name":"Bone.02",
			"rotation":[
				0,
				0,
				0.39569222927093506,
				0.9183831810951233
			],
			"scale":[
				1,
				1.0000001192092896,
				1
			],
			"translation":[
				0,
				0.1131734848022461,
				0
			]
		},
		{
			"name":"Bone.07",
			"rotation":[
				0,
				0,
				0.08396513760089874,
				0.9964686632156372
			],
			"scale":[
				1,
				1.0000001192092896,
				1
			],
			"translation":[
				3.725290298461914e-09,
				0.06084762141108513,
				0
			]
		},
		{
			"children":[
				4
			],
			"name":"Bone.06",
			"rotation":[
				0,
				0,
				-0.08396514505147934,
				0.9964686632156372
			],
			"translation":[
				0,
				0.1131734848022461,
				0
			]
		},
		{
			"name":"Bone.09",
			"rotation":[
				0,
				0,
				0.3600021302700043,
				0.9329515099525452
			],
			"scale":[
				1,
				0.9999999403953552,
				1
			],
			"translation":[
				1.1175870895385742e-08,
				0.047683168202638626,
				0
			]
		},
		{
			"children":[
				6
			],
			"name":"Bone.08",
			"rotation":[
				0,
				0,
				-0.3857489228248596,
				0.9226037859916687
			],
			"translation":[
				0,
				0.1131734848022461,
				0
			]
		},
		{
			"children":[
				1,
				3,
				5,
				7
			],
			"name":"Bone.03",
			"translation":[
				0,
				0.32602131366729736,
				0
			]
		},
		{
			"children":[
				8
			],
			"name":"Bone.04",
			"rotation":[
				-0.7071067690849304,
				0,
				0,
				0.7071067690849304
			]
		},
		{
			"mesh":0,
			"name":"Arm",
			"skin":0
		},
		{
			"children":[
				9
			],
			"name":"Arm-Armature"
		}
	],
	"animations":[
		{
			"channels":[
				{
					"sampler":0,
					"target":{
						"node":9,
						"path":"translation"
					}
				},
				{
					"sampler":1,
					"target":{
						"node":9,
						"path":"rotation"
					}
				},
				{
					"sampler":2,
					"target":{
						"node":9,
						"path":"scale"
					}
				},
				{
					"sampler":3,
					"target":{
						"node":8,
						"path":"translation"
					}
				},
				{
					"sampler":4,
					"target":{
						"node":8,
						"path":"rotation"
					}
				},
				{
					"sampler":5,
					"target":{
						"node":8,
						"path":"scale"
					}
				},
				{
					"sampler":6,
					"target":{
						"node":1,
						"path":"translation"
					}
				},
				{
					"sampler":7,
					"target":{
						"node":1,
						"path":"rotation"
					}
				},
				{
					"sampler":8,
					"target":{
						"node":1,
						"path":"scale"
					}
				},
				{
					"sampler":9,
					"target":{
						"node":0,
						"path":"translation"
					}
				},
				{
					"sampler":10,
					"target":{
						"node":0,
						"path":"rotation"
					}
				},
				{
					"sampler":11,
					"target":{
						"node":0,
						"path":"scale"
					}
				},
				{
					"sampler":12,
					"target":{
						"node":3,
						"path":"translation"
					}
				},
				{
					"sampler":13,
					"target":{
						"node":3,
						"path":"rotation"
					}
				},
				{
					"sampler":14,
					"target":{
						"node":3,
						"path":"scale"
					}
				},
				{
					"sampler":15,
					"target":{
						"node":2,
						"path":"translation"
					}
				},
				{
					"sampler":16,
					"target":{
						"node":2,
						"path":"rotation"
					}
				},
				{
					"sampler":17,
					"target":{
						"node":2,
						"path":"scale"
					}
				},
				{
					"sampler":18,
					"target":{
						"node":5,
						"path":"translation"
					}
				},
				{
					"sampler":19,
					"target":{
						"node":5,
						"path":"rotation"
					}
				},
				{
					"sampler":20,
					"target":{
						"node":5,
						"path":"scale"
					}
				},
				{
					"sampler":21,
					"target":{
						"node":4,
						"path":"translation"
					}
				},
				{
					"sampler":22,
					"target":{
						"node":4,
						"path":"rotation"
					}
				},
				{
					"sampler":23,
					"target":{
						"node":4,
						"path":"scale"
					}
				},
				{
					"sampler":24,
					"target":{
						"node":7,
						"path":"translation"
					}
				},
				{
					"sampler":25,
					"target":{
						"node":7,
						"path":"rotation"
					}
				},
				{
					"sampler":26,
					"target":{
						"node":7,
						"path":"scale"
					}
				},
				{
					"sampler":27,
					"target":{
						"node":6,
						"path":"translation"
					}
				},
				{
					"sampler":28,
					"target":{
						"node":6,
						"path":"rotation"
					}
				},
				{
					"sampler":29,
					"target":{
						"node":6,
						"path":"scale"
					}
				}
			],
			"name":"Pistol-idle-loop",
			"samplers":[
				{
					"input":8,
					"interpolation":"STEP",
					"output":9
				},
				{
					"input":8,
					"interpolation":"STEP",
					"output":10
				},
				{
					"input":8,
					"interpolation":"STEP",
					"output":11
				},
				{
					"input":8,
					"interpolation":"STEP",
					"output":12
				},
				{
					"input":8,
					"interpolation":"STEP",
					"output":13
				},
				{
					"input":8,
					"interpolation":"STEP",
					"output":14
				},
				{
					"input":8,
					"interpolation":"STEP",
					"output":15
				},
				{
					"input":8,
					"interpolation":"STEP",
					"output":16
				},
				{
					"input":8,
					"interpolation":"STEP",
					"output":17
				},
				{
					"input":8,
					"interpolation":"STEP",
					"output":18
				},
				{
					"input":8,
					"interpolation":"STEP",
					"output":19
				},
				{
					"input":8,
					"interpolation":"STEP",
					"output":17
				},
				{
					"input":8,
					"interpolation":"STEP",
					"output":20
				},
				{
					"input":8,
					"interpolation":"STEP",
					"output":21
				},
				{
					"input":8,
					"interpolation":"STEP",
					"output":22
				},
				{
					"input":8,
					"interpolation":"STEP",
					"output":23
				},
				{
					"input":8,
					"interpolation":"STEP",
					"output":24
				},
				{
					"input":8,
					"interpolation":"STEP",
					"output":25
				},
				{
					"input":8,
					"interpolation":"STEP",
					"output":26
				},
				{
					"input":8,
					"interpolation":"STEP",
					"output":27
				},
				{
					"input":8,
					"interpolation":"STEP",
					"output":28
				},
				{
					"input":8,
					"interpolation":"STEP",
					"output":29
				},
				{
					"input":8,
					"interpolation":"STEP",
					"output":30
				},
				{
					"input":8,
					"interpolation":"STEP",
					"output":31
				},
				{
					"input":8,
					"interpolation":"STEP",
					"output":32
				},
				{
					"input":8,
					"interpolation":"STEP",
					"output":33
				},
				{
					"input":8,
					"interpolation":"STEP",
					"output":34
				},
				{
					"input":8,
					"interpolation":"STEP",
					"output":35
				},
				{
					"input":8,
					"interpolation":"STEP",
					"output":36
				},
				{
					"input":8,
					"interpolation":"STEP",
					"output":37
				}
			]
		},
		{
			"channels":[
				{
					"sampler":0,
					"target":{
						"node":9,
						"path":"translation"
					}
				},
				{
					"sampler":1,
					"target":{
						"node":9,
						"path":"rotation"
					}
				},
				{
					"sampler":2,
					"target":{
						"node":9,
						"path":"scale"
					}
				},
				{
					"sampler":3,
					"target":{
						"node":8,
						"path":"translation"
					}
				},
				{
					"sampler":4,
					"target":{
						"node":8,
						"path":"rotation"
					}
				},
				{
					"sampler":5,
					"target":{
						"node":8,
						"path":"scale"
					}
				},
				{
					"sampler":6,
					"target":{
						"node":1,
						"path":"translation"
					}
				},
				{
					"sampler":7,
					"target":{
						"node":1,
						"path":"rotation"
					}
				},
				{
					"sampler":8,
					"target":{
						"node":1,
						"path":"scale"
					}
				},
				{
					"sampler":9,
					"target":{
						"node":0,
						"path":"translation"
					}
				},
				{
					"sampler":10,
					"target":{
						"node":0,
						"path":"rotation"
					}
				},
				{
					"sampler":11,
					"target":{
						"node":0,
						"path":"scale"
					}
				},
				{
					"sampler":12,
					"target":{
						"node":3,
						"path":"translation"
					}
				},
				{
					"sampler":13,
					"target":{
						"node":3,
						"path":"rotation"
					}
				},
				{
					"sampler":14,
					"target":{
						"node":3,
						"path":"scale"
					}
				},
				{
					"sampler":15,
					"target":{
						"node":2,
						"path":"translation"
					}
				},
				{
					"sampler":16,
					"target":{
						"node":2,
						"path":"rotation"
					}
				},
				{
					"sampler":17,
					"target":{
						"node":2,
						"path":"scale"
					}
				},
				{
					"sampler":18,
					"target":{
						"node":5,
						"path":"translation"
					}
				},
				{
					"sampler":19,
					"target":{
						"node":5,
						"path":"rotation"
					}
				},
				{
					"sampler":20,
					"target":{
						"node":5,
						"path":"scale"
					}
				},
				{
					"sampler":21,
					"target":{
						"node":4,
						"path":"translation"
					}
				},
				{
					"sampler":22,
					"target":{
						"node":4,
						"path":"rotation"
					}
				},
				{
					"sampler":23,
					"target":{
						"node":4,
						"path":"scale"
					}
				},
				{
					"sampler":24,
					"target":{
						"node":7,
						"path":"translation"
					}
				},
				{
					"sampler":25,
					"target":{
						"node":7,
						"path":"rotation"
					}
				},
				{
					"sampler":26,
					"target":{
						"node":7,
						"path":"scale"
					}
				},
				{
					"sampler":27,
					"target":{
						"node":6,
						"path":"translation"
					}
				},
				{
					"sampler":28,
					"target":{
						"node":6,
						"path":"rotation"
					}
				},
				{
					"sampler":29,
					"target":{
						"node":6,
						"path":"scale"
					}
				}
			],
			"name":"Pistol-shoot",
			"samplers":[
				{
					"input":38,
					"interpolation":"STEP",
					"output":9
				},
				{
					"input":39,
					"interpolation":"LINEAR",
					"output":40
				},
				{
					"input":38,
					"interpolation":"STEP",
					"output":11
				},
				{
					"input":38,
					"interpolation":"STEP",
					"output":12
				},
				{
					"input":39,
					"interpolation":"LINEAR",
					"output":41
				},
				{
					"input":38,
					"interpolation":"STEP",
					"output":14
				},
				{
					"input":38,
					"interpolation":"STEP",
					"output":15
				},
				{
					"input":38,
					"interpolation":"STEP",
					"output":16
				},
				{
					"input":38,
					"interpolation":"STEP",
					"output":17
				},
				{
					"input":38,
					"interpolation":"STEP",
					"output":18
				},
				{
					"input":39,
					"interpolation":"LINEAR",
					"output":42
				},
				{
					"input":38,
					"interpolation":"STEP",
					"output":17
				},
				{
					"input":38,
					"interpolation":"STEP",
					"output":20
				},
				{
					"input":39,
					"interpolation":"LINEAR",
					"output":43
				},
				{
					"input":38,
					"interpolation":"STEP",
					"output":22
				},
				{
					"input":38,
					"interpolation":"STEP",
					"output":23
				},
				{
					"input":39,
					"interpolation":"LINEAR",
					"output":44
				},
				{
					"input":38,
					"interpolation":"STEP",
					"output":25
				},
				{
					"input":38,
					"interpolation":"STEP",
					"output":26
				},
				{
					"input":39,
					"interpolation":"LINEAR",
					"output":45
				},
				{
					"input":38,
					"interpolation":"STEP",
					"output":28
				},
				{
					"input":38,
					"interpolation":"STEP",
					"output":29
				},
				{
					"input":39,
					"interpolation":"LINEAR",
					"output":46
				},
				{
					"input":38,
					"interpolation":"STEP",
					"output":31
				},
				{
					"input":38,
					"interpolation":"STEP",
					"output":32
				},
				{
					"input":39,
					"interpolation":"LINEAR",
					"output":47
				},
				{
					"input":38,
					"interpolation":"STEP",
					"output":34
				},
				{
					"input":38,
					"interpolation":"STEP",
					"output":35
				},
				{
					"input":39,
					"interpolation":"LINEAR",
					"output":48
				},
				{
					"input":38,
					"interpolation":"STEP",
					"output":37
				}
			]
		}
	],
	"meshes":[
		{
			"name":"Plane",
			"primitives":[
				{
					"attributes":{
						"POSITION":0,
						"NORMAL":1,
						"TEXCOORD_0":2,
						"COLOR_0":3,
						"JOINTS_0":4,
						"WEIGHTS_0":5
					},
					"indices":6
				}
			]
		}
	],
	"skins":[
		{
			"inverseBindMatrices":7,
			"joints":[
				9,
				8,
				1,
				0,
				3,
				2,
				5,
				4,
				7,
				6
			],
			"name":"Arm-Armature"
		}
	],
	"accessors":[
		{
			"bufferView":0,
			"componentType":5126,
			"count":352,
			"max":[
				0.043964583426713943,
				0.017262568697333336,
				0
			],
			"min":[
				-0.04903288930654526,
				-0.017262568697333336,
				-0.5680148005485535
			],
			"type":"VEC3"
		},
		{
			"bufferView":1,
			"componentType":5126,
			"count":352,
			"type":"VEC3"
		},
		{
			"bufferView":2,
			"componentType":5126,
			"count":352,
			"type":"VEC2"
		},
		{
			"bufferView":3,
			"componentType":5123,
			"count":352,
			"normalized":true,
			"type":"VEC4"
		},
		{
			"bufferView":4,
			"componentType":5121,
			"count":352,
			"type":"VEC4"
		},
		{
			"bufferView":5,
			"componentType":5126,
			"count":352,
			"type":"VEC4"
		},
		{
			"bufferView":6,
			"componentType":5123,
			"count":960,
			"type":"SCALAR"
		},
		{
			"bufferView":7,
			"componentType":5126,
			"count":10,
			"type":"MAT4"
		},
		{
			"bufferView":8,
			"componentType":5126,
			"count":2,
			"max":[
				0.08333333333333333
			],
			"min":[
				0.041666666666666664
			],
			"type":"SCALAR"
		},
		{
			"bufferView":9,
			"componentType":5126,
			"count":2,
			"type":"VEC3"
		},
		{
			"bufferView":10,
			"componentType":5126,
			"count":2,
			"type":"VEC4"
		},
		{
			"bufferView":11,
			"componentType":5126,
			"count":2,
			"type":"VEC3"
		},
		{
			"bufferView":12,
			"componentType":5126,
			"count":2,
			"type":"VEC3"
		},
		{
			"bufferView":13,
			"componentType":5126,
			"count":2,
			"type":"VEC4"
		},
		{
			"bufferView":14,
			"componentType":5126,
			"count":2,
			"type":"VEC3"
		},
		{
			"bufferView":15,
			"componentType":5126,
			"count":2,
			"type":"VEC3"
		},
		{
			"bufferView":16,
			"componentType":5126,
			"count":2,
			"type":"VEC4"
		},
		{
			"bufferView":17,
			"componentType":5126,
			"count":2,
			"type":"VEC3"
		},
		{
			"bufferView":18,
			"componentType":5126,
			"count":2,
			"type":"VEC3"
		},
		{
			"bufferView":19,
			"componentType":5126,
			"count":2,
			"type":"VEC4"
		},
		{
			"bufferView":20,
			"componentType":5126,
			"count":2,
			"type":"VEC3"
		},
		{
			"bufferView":21,
			"componentType":5126,
			"count":2,
			"type":"VEC4"
		},
		{
			"bufferView":22,
			"componentType":5126,
			"count":2,
			"type":"VEC3"
		},
		{
			"bufferView":23,
			"componentType":5126,
			"count":2,
			"type":"VEC3"
		},
		{
			"bufferView":24,
			"componentType":5126,
			"count":2,
			"type":"VEC4"
		},
		{
			"bufferView":25,
			"componentType":5126,
			"count":2,
			"type":"VEC3"
		},
		{
			"bufferView":26,
			"componentType":5126,
			"count":2,
			"type":"VEC3"
		},
		{
			"bufferView":27,
			"componentType":5126,
			"count":2,
			"type":"VEC4"
		},
		{
			"bufferView":28,
			"componentType":5126,
			"count":2,
			"type":"VEC3"
		},
		{
			"bufferView":29,
			"componentType":5126,
			"count":2,
			"type":"VEC3"
		},
		{
			"bufferView":30,
			"componentType":5126,
			"count":2,
			"type":"VEC4"
		},
		{
			"bufferView":31,
			"componentType":5126,
			"count":2,
			"type":"VEC3"
		},
		{
			"bufferView":32,
			"componentType":5126,
			"count":2,
			"type":"VEC3"
		},
		{
			"bufferView":33,
			"componentType":5126,
			"count":2,
			"type":"VEC4"
		},
		{
			"bufferView":34,
			"componentType":5126,
			"count":2,
			"type":"VEC3"
		},
		{
			"bufferView":35,
			"componentType":5126,
			"count":2,
			"type":"VEC3"
		},
		{
			"bufferView":36,
			"componentType":5126,
			"count":2,
			"type":"VEC4"
		},
		{
			"bufferView":37,
			"componentType":5126,
			"count":2,
			"type":"VEC3"
		},
		{
			"bufferView":38,
			"componentType":5126,
			"count":2,
			"max":[
				0.4166666666666667
			],
			"min":[
				0.041666666666666664
			],
			"type":"SCALAR"
		},
		{
			"bufferView":39,
			"componentType":5126,
			"count":10,
			"max":[
				0.4166666666666667
			],
			"min":[
				0.041666666666666664
			],
			"type":"SCALAR"
		},
		{
			"bufferView":40,
			"componentType":5126,
			"count":10,
			"type":"VEC4"
		},
		{
			"bufferView":41,
			"componentType":5126,
			"count":10,
			"type":"VEC4"
		},
		{
			"bufferView":42,
			"componentType":5126,
			"count":10,
			"type":"VEC4"
		},
		{
			"bufferView":43,
			"componentType":5126,
			"count":10,
			"type":"VEC4"
		},
		{
			"bufferView":44,
			"componentType":5126,
			"count":10,
			"type":"VEC4"
		},
		{
			"bufferView":45,
			"componentType":5126,
			"count":10,
			"type":"VEC4"
		},
		{
			"bufferView":46,
			"componentType":5126,
			"count":10,
			"type":"VEC4"
		},
		{
			"bufferView":47,
			"componentType":5126,
			"count":10,
			"type":"VEC4"
		},
		{
			"bufferView":48,
			"componentType":5126,
			"count":10,
			"type":"VEC4"
		}
	],
	"bufferViews":[
		{
			"buffer":0,
			"byteLength":4224,
			"byteOffset":0,
			"target":34962
		},
		{
			"buffer":0,
			"byteLength":4224,
			"byteOffset":4224,
			"target":34962
		},
		{
			"buffer":0,
			"byteLength":2816,
			"byteOffset":8448,
			"target":34962
		},
		{
			"buffer":0,
			"byteLength":2816,
			"byteOffset":11264,
			"target":34962
		},
		{
			"buffer":0,
			"byteLength":1408,
			"byteOffset":14080,
			"target":34962
		},
		{
			"buffer":0,
			"byteLength":5632,
			"byteOffset":15488,
			"target":34962
		},
		{
			"buffer":0,
			"byteLength":1920,
			"byteOffset":21120,
			"target":34963
		},
		{
			"buffer":0,
			"byteLength":640,
			"byteOffset":23040
		},
		{
			"buffer":0,
			"byteLength":8,
			"byteOffset":23680
		},
		{
			"buffer":0,
			"byteLength":24,
			"byteOffset":23688
		},
		{
			"buffer":0,
			"byteLength":32,
			"byteOffset":23712
		},
		{
			"buffer":0,
			"byteLength":24,
			"byteOffset":23744
		},
		{
			"buffer":0,
			"byteLength":24,
			"byteOffset":23768
		},
		{
			"buffer":0,
			"byteLength":32,
			"byteOffset":23792
		},
		{
			"buffer":0,
			"byteLength":24,
			"byteOffset":23824
		},
		{
			"buffer":0,
			"byteLength":24,
			"byteOffset":23848
		},
		{
			"buffer":0,
			"byteLength":32,
			"byteOffset":23872
		},
		{
			"buffer":0,
			"byteLength":24,
			"byteOffset":23904
		},
		{
			"buffer":0,
			"byteLength":24,
			"byteOffset":23928
		},
		{
			"buffer":0,
			"byteLength":32,
			"byteOffset":23952
		},
		{
			"buffer":0,
			"byteLength":24,
			"byteOffset":23984
		},
		{
			"buffer":0,
			"byteLength":32,
			"byteOffset":24008
		},
		{
			"buffer":0,
			"byteLength":24,
			"byteOffset":24040
		},
		{
			"buffer":0,
			"byteLength":24,
			"byteOffset":24064
		},
		{
			"buffer":0,
			"byteLength":32,
			"byteOffset":24088
		},
		{
			"buffer":0,
			"byteLength":24,
			"byteOffset":24120
		},
		{
			"buffer":0,
			"byteLength":24,
			"byteOffset":24144
		},
		{
			"buffer":0,
			"byteLength":32,
			"byteOffset":24168
		},
		{
			"buffer":0,
			"byteLength":24,
			"byteOffset":24200
		},
		{
			"buffer":0,
			"byteLength":24,
			"byteOffset":24224
		},
		{
			"buffer":0,
			"byteLength":32,
			"byteOffset":24248
		},
		{
			"buffer":0,
			"byteLength":24,
			"byteOffset":24280
		},
		{
			"buffer":0,
			"byteLength":24,
			"byteOffset":24304
		},
		{
			"buffer":0,
			"byteLength":32,
			"byteOffset":24328
		},
		{
			"buffer":0,
			"byteLength":24,
			"byteOffset":24360
		},
		{
			"buffer":0,
			"byteLength":24,
			"byteOffset":24384
		},
		{
			"buffer":0,
			"byteLength":32,
			"byteOffset":24408
		},
		{
			"buffer":0,
			"byteLength":24,
			"byteOffset":24440
		},
		{
			"buffer":0,
			"byteLength":8,
			"byteOffset":24464
		},
		{
			"buffer":0,
			"byteLength":40,
			"byteOffset":24472
		},
		{
			"buffer":0,
			"byteLength":160,
			"byteOffset":24512
		},
		{
			"buffer":0,
			"byteLength":160,
			"byteOffset":24672
		},
		{
			"buffer":0,
			"byteLength":160,
			"byteOffset":24832
		},
		{
			"buffer":0,
			"byteLength":160,
			"byteOffset":24992
		},
		{
			"buffer":0,
			"byteLength":160,
			"byteOffset":25152
		},
		{
			"buffer":0,
			"byteLength":160,
			"byteOffset":25312
		},
		{
			"buffer":0,
			"byteLength":160,
			"byteOffset":25472
		},
		{
			"buffer":0,
			"byteLength":160,
			"byteOffset":25632
		},
		{
			"buffer":0,
			"byteLength":160,
			"byteOffset":25792
		}
	],
	"buffers":[
		{
			"byteLength":25952,
			"uri":"hand.bin"
		}
	]
}
