{
	"asset":{
		"generator":"Khronos glTF Blender I/O v5.0.21",
		"version":"2.0"
	},
	"scene":0,
	"scenes":[
		{
			"name":"Scene",
			"nodes":[
				10,
				11
			]
		}
	],
	"nodes":[
		{
			"name":"Bone.05",
			"rotation":[
				0,
				0,
				0.13465647399425507,
				0.9908923506736755
			],
			"scale":[
				1.0000001192092896,
				1,
				1
			],
			"translation":[
				1.0244548320770264e-08,
				0.0548507459461689,
				0
			]
		},
		{
			"children":[
				0
			],
			"name":"Bone.00",
			"rotation":[
				0,
				0,
				-0.15662682056427002,
				0.987657904624939
			],
			"scale":[
				0.9999999403953552,
				0.9999999403953552,
				1
			],
			"translation":[
				0,
				0.2591955065727234,
				0
			]
		},
		{
			"name":"Bone.01",
			"rotation":[
				0,
				0,
				0.3494528532028198,
				0.9369539618492126
			],
			"translation":[
				1.1175870895385742e-08,
				0.05370337516069412,
				0
			]
		},
		{
			"children":[
				2
			],
			"name":"Bone.02",
			"rotation":[
				0,
				0,
				-0.39569222927093506,
				0.9183831810951233
			],
			"scale":[
				1,
				1.0000001192092896,
				1
			],
			"translation":[
				0,
				0.2591955065727234,
				0
			]
		},
		{
			"name":"Bone.07",
			"rotation":[
				0,
				0,
				-0.08396513760089874,
				0.9964686632156372
			],
			"scale":[
				1,
				1.0000001192092896,
				1
			],
			"translation":[
				-6.51925802230835e-09,
				0.06084761396050453,
				0
			]
		},
		{
			"children":[
				4
			],
			"name":"Bone.06",
			"rotation":[
				0,
				0,
				0.08396514505147934,
				0.9964686632156372
			],
			"translation":[
				0,
				0.2591955065727234,
				0
			]
		},
		{
			"name":"Bone.09",
			"rotation":[
				0,
				0,
				-0.3600021302700043,
				0.9329515099525452
			],
			"scale":[
				1,
				0.9999999403953552,
				1
			],
			"translation":[
				-5.587935447692871e-09,
				0.04768316075205803,
				0
			]
		},
		{
			"children":[
				6
			],
			"name":"Bone.08",
			"rotation":[
				0,
				0,
				0.3857489228248596,
				0.9226037859916687
			],
			"translation":[
				0,
				0.2591955065727234,
				0
			]
		},
		{
			"children":[
				1,
				3,
				5,
				7
			],
			"name":"Bone.03",
			"translation":[
				0,
				0.17999927699565887,
				0
			]
		},
		{
			"children":[
				8
			],
			"name":"Bone.04",
			"rotation":[
				-0.7071067690849304,
				0,
				0,
				0.7071067690849304
			],
			"translation":[
				-0.003903128206729889,
				0,
				0
			]
		},
		{
			"mesh":0,
			"name":"Arm",
			"skin":0
		},
		{
			"children":[
				9
			],
			"name":"Arm-Armature"
		}
	],
	"animations":[
		{
			"channels":[
				{
					"sampler":0,
					"target":{
						"node":9,
						"path":"translation"
					}
				},
				{
					"sampler":1,
					"target":{
						"node":9,
						"path":"rotation"
					}
				},
				{
					"sampler":2,
					"target":{
						"node":9,
						"path":"scale"
					}
				},
				{
					"sampler":3,
					"target":{
						"node":8,
						"path":"translation"
					}
				},
				{
					"sampler":4,
					"target":{
						"node":8,
						"path":"rotation"
					}
				},
				{
					"sampler":5,
					"target":{
						"node":8,
						"path":"scale"
					}
				},
				{
					"sampler":6,
					"target":{
						"node":1,
						"path":"translation"
					}
				},
				{
					"sampler":7,
					"target":{
						"node":1,
						"path":"rotation"
					}
				},
				{
					"sampler":8,
					"target":{
						"node":1,
						"path":"scale"
					}
				},
				{
					"sampler":9,
					"target":{
						"node":0,
						"path":"translation"
					}
				},
				{
					"sampler":10,
					"target":{
						"node":0,
						"path":"rotation"
					}
				},
				{
					"sampler":11,
					"target":{
						"node":0,
						"path":"scale"
					}
				},
				{
					"sampler":12,
					"target":{
						"node":3,
						"path":"translation"
					}
				},
				{
					"sampler":13,
					"target":{
						"node":3,
						"path":"rotation"
					}
				},
				{
					"sampler":14,
					"target":{
						"node":3,
						"path":"scale"
					}
				},
				{
					"sampler":15,
					"target":{
						"node":2,
						"path":"translation"
					}
				},
				{
					"sampler":16,
					"target":{
						"node":2,
						"path":"rotation"
					}
				},
				{
					"sampler":17,
					"target":{
						"node":2,
						"path":"scale"
					}
				},
				{
					"sampler":18,
					"target":{
						"node":5,
						"path":"translation"
					}
				},
				{
					"sampler":19,
					"target":{
						"node":5,
						"path":"rotation"
					}
				},
				{
					"sampler":20,
					"target":{
						"node":5,
						"path":"scale"
					}
				},
				{
					"sampler":21,
					"target":{
						"node":4,
						"path":"translation"
					}
				},
				{
					"sampler":22,
					"target":{
						"node":4,
						"path":"rotation"
					}
				},
				{
					"sampler":23,
					"target":{
						"node":4,
						"path":"scale"
					}
				},
				{
					"sampler":24,
					"target":{
						"node":7,
						"path":"translation"
					}
				},
				{
					"sampler":25,
					"target":{
						"node":7,
						"path":"rotation"
					}
				},
				{
					"sampler":26,
					"target":{
						"node":7,
						"path":"scale"
					}
				},
				{
					"sampler":27,
					"target":{
						"node":6,
						"path":"translation"
					}
				},
				{
					"sampler":28,
					"target":{
						"node":6,
						"path":"rotation"
					}
				},
				{
					"sampler":29,
					"target":{
						"node":6,
						"path":"scale"
					}
				}
			],
			"name":"chop",
			"samplers":[
				{
					"input":8,
					"interpolation":"STEP",
					"output":9
				},
				{
					"input":8,
					"interpolation":"STEP",
					"output":10
				},
				{
					"input":8,
					"interpolation":"STEP",
					"output":11
				},
				{
					"input":8,
					"interpolation":"STEP",
					"output":12
				},
				{
					"input":13,
					"interpolation":"LINEAR",
					"output":14
				},
				{
					"input":8,
					"interpolation":"STEP",
					"output":15
				},
				{
					"input":8,
					"interpolation":"STEP",
					"output":16
				},
				{
					"input":8,
					"interpolation":"STEP",
					"output":17
				},
				{
					"input":8,
					"interpolation":"STEP",
					"output":18
				},
				{
					"input":8,
					"interpolation":"STEP",
					"output":19
				},
				{
					"input":8,
					"interpolation":"STEP",
					"output":20
				},
				{
					"input":8,
					"interpolation":"STEP",
					"output":21
				},
				{
					"input":8,
					"interpolation":"STEP",
					"output":22
				},
				{
					"input":8,
					"interpolation":"STEP",
					"output":23
				},
				{
					"input":8,
					"interpolation":"STEP",
					"output":24
				},
				{
					"input":8,
					"interpolation":"STEP",
					"output":25
				},
				{
					"input":8,
					"interpolation":"STEP",
					"output":26
				},
				{
					"input":8,
					"interpolation":"STEP",
					"output":27
				},
				{
					"input":8,
					"interpolation":"STEP",
					"output":28
				},
				{
					"input":8,
					"interpolation":"STEP",
					"output":29
				},
				{
					"input":8,
					"interpolation":"STEP",
					"output":30
				},
				{
					"input":8,
					"interpolation":"STEP",
					"output":31
				},
				{
					"input":8,
					"interpolation":"STEP",
					"output":32
				},
				{
					"input":8,
					"interpolation":"STEP",
					"output":33
				},
				{
					"input":8,
					"interpolation":"STEP",
					"output":34
				},
				{
					"input":8,
					"interpolation":"STEP",
					"output":35
				},
				{
					"input":8,
					"interpolation":"STEP",
					"output":36
				},
				{
					"input":8,
					"interpolation":"STEP",
					"output":37
				},
				{
					"input":8,
					"interpolation":"STEP",
					"output":38
				},
				{
					"input":8,
					"interpolation":"STEP",
					"output":39
				}
			]
		},
		{
			"channels":[
				{
					"sampler":0,
					"target":{
						"node":9,
						"path":"translation"
					}
				},
				{
					"sampler":1,
					"target":{
						"node":9,
						"path":"rotation"
					}
				},
				{
					"sampler":2,
					"target":{
						"node":9,
						"path":"scale"
					}
				},
				{
					"sampler":3,
					"target":{
						"node":8,
						"path":"translation"
					}
				},
				{
					"sampler":4,
					"target":{
						"node":8,
						"path":"rotation"
					}
				},
				{
					"sampler":5,
					"target":{
						"node":8,
						"path":"scale"
					}
				},
				{
					"sampler":6,
					"target":{
						"node":1,
						"path":"translation"
					}
				},
				{
					"sampler":7,
					"target":{
						"node":1,
						"path":"rotation"
					}
				},
				{
					"sampler":8,
					"target":{
						"node":1,
						"path":"scale"
					}
				},
				{
					"sampler":9,
					"target":{
						"node":0,
						"path":"translation"
					}
				},
				{
					"sampler":10,
					"target":{
						"node":0,
						"path":"rotation"
					}
				},
				{
					"sampler":11,
					"target":{
						"node":0,
						"path":"scale"
					}
				},
				{
					"sampler":12,
					"target":{
						"node":3,
						"path":"translation"
					}
				},
				{
					"sampler":13,
					"target":{
						"node":3,
						"path":"rotation"
					}
				},
				{
					"sampler":14,
					"target":{
						"node":3,
						"path":"scale"
					}
				},
				{
					"sampler":15,
					"target":{
						"node":2,
						"path":"translation"
					}
				},
				{
					"sampler":16,
					"target":{
						"node":2,
						"path":"rotation"
					}
				},
				{
					"sampler":17,
					"target":{
						"node":2,
						"path":"scale"
					}
				},
				{
					"sampler":18,
					"target":{
						"node":5,
						"path":"translation"
					}
				},
				{
					"sampler":19,
					"target":{
						"node":5,
						"path":"rotation"
					}
				},
				{
					"sampler":20,
					"target":{
						"node":5,
						"path":"scale"
					}
				},
				{
					"sampler":21,
					"target":{
						"node":4,
						"path":"translation"
					}
				},
				{
					"sampler":22,
					"target":{
						"node":4,
						"path":"rotation"
					}
				},
				{
					"sampler":23,
					"target":{
						"node":4,
						"path":"scale"
					}
				},
				{
					"sampler":24,
					"target":{
						"node":7,
						"path":"translation"
					}
				},
				{
					"sampler":25,
					"target":{
						"node":7,
						"path":"rotation"
					}
				},
				{
					"sampler":26,
					"target":{
						"node":7,
						"path":"scale"
					}
				},
				{
					"sampler":27,
					"target":{
						"node":6,
						"path":"translation"
					}
				},
				{
					"sampler":28,
					"target":{
						"node":6,
						"path":"rotation"
					}
				},
				{
					"sampler":29,
					"target":{
						"node":6,
						"path":"scale"
					}
				}
			],
			"name":"idle",
			"samplers":[
				{
					"input":40,
					"interpolation":"STEP",
					"output":41
				},
				{
					"input":40,
					"interpolation":"STEP",
					"output":42
				},
				{
					"input":40,
					"interpolation":"STEP",
					"output":43
				},
				{
					"input":40,
					"interpolation":"STEP",
					"output":44
				},
				{
					"input":40,
					"interpolation":"STEP",
					"output":45
				},
				{
					"input":40,
					"interpolation":"STEP",
					"output":46
				},
				{
					"input":40,
					"interpolation":"STEP",
					"output":47
				},
				{
					"input":40,
					"interpolation":"STEP",
					"output":48
				},
				{
					"input":40,
					"interpolation":"STEP",
					"output":49
				},
				{
					"input":40,
					"interpolation":"STEP",
					"output":50
				},
				{
					"input":40,
					"interpolation":"STEP",
					"output":51
				},
				{
					"input":40,
					"interpolation":"STEP",
					"output":52
				},
				{
					"input":40,
					"interpolation":"STEP",
					"output":53
				},
				{
					"input":40,
					"interpolation":"STEP",
					"output":54
				},
				{
					"input":40,
					"interpolation":"STEP",
					"output":55
				},
				{
					"input":40,
					"interpolation":"STEP",
					"output":56
				},
				{
					"input":40,
					"interpolation":"STEP",
					"output":57
				},
				{
					"input":40,
					"interpolation":"STEP",
					"output":58
				},
				{
					"input":40,
					"interpolation":"STEP",
					"output":59
				},
				{
					"input":40,
					"interpolation":"STEP",
					"output":60
				},
				{
					"input":40,
					"interpolation":"STEP",
					"output":61
				},
				{
					"input":40,
					"interpolation":"STEP",
					"output":62
				},
				{
					"input":40,
					"interpolation":"STEP",
					"output":63
				},
				{
					"input":40,
					"interpolation":"STEP",
					"output":64
				},
				{
					"input":40,
					"interpolation":"STEP",
					"output":65
				},
				{
					"input":40,
					"interpolation":"STEP",
					"output":66
				},
				{
					"input":40,
					"interpolation":"STEP",
					"output":55
				},
				{
					"input":40,
					"interpolation":"STEP",
					"output":67
				},
				{
					"input":40,
					"interpolation":"STEP",
					"output":68
				},
				{
					"input":40,
					"interpolation":"STEP",
					"output":69
				}
			]
		}
	],
	"meshes":[
		{
			"name":"Plane",
			"primitives":[
				{
					"attributes":{
						"POSITION":0,
						"NORMAL":1,
						"TEXCOORD_0":2,
						"COLOR_0":3,
						"JOINTS_0":4,
						"WEIGHTS_0":5
					},
					"indices":6
				}
			]
		}
	],
	"skins":[
		{
			"inverseBindMatrices":7,
			"joints":[
				9,
				8,
				1,
				0,
				3,
				2,
				5,
				4,
				7,
				6
			],
			"name":"Arm-Armature"
		}
	],
	"accessors":[
		{
			"bufferView":0,
			"componentType":5126,
			"count":352,
			"max":[
				0.04787614196538925,
				0.017262568697333336,
				0
			],
			"min":[
				-0.04512133076786995,
				-0.017262568697333336,
				-0.5680148005485535
			],
			"type":"VEC3"
		},
		{
			"bufferView":1,
			"componentType":5126,
			"count":352,
			"type":"VEC3"
		},
		{
			"bufferView":2,
			"componentType":5126,
			"count":352,
			"type":"VEC2"
		},
		{
			"bufferView":3,
			"componentType":5123,
			"count":352,
			"normalized":true,
			"type":"VEC4"
		},
		{
			"bufferView":4,
			"componentType":5121,
			"count":352,
			"type":"VEC4"
		},
		{
			"bufferView":5,
			"componentType":5126,
			"count":352,
			"type":"VEC4"
		},
		{
			"bufferView":6,
			"componentType":5123,
			"count":960,
			"type":"SCALAR"
		},
		{
			"bufferView":7,
			"componentType":5126,
			"count":10,
			"type":"MAT4"
		},
		{
			"bufferView":8,
			"componentType":5126,
			"count":2,
			"max":[
				1
			],
			"min":[
				0.041666666666666664
			],
			"type":"SCALAR"
		},
		{
			"bufferView":9,
			"componentType":5126,
			"count":2,
			"type":"VEC3"
		},
		{
			"bufferView":10,
			"componentType":5126,
			"count":2,
			"type":"VEC4"
		},
		{
			"bufferView":11,
			"componentType":5126,
			"count":2,
			"type":"VEC3"
		},
		{
			"bufferView":12,
			"componentType":5126,
			"count":2,
			"type":"VEC3"
		},
		{
			"bufferView":13,
			"componentType":5126,
			"count":24,
			"max":[
				1
			],
			"min":[
				0.041666666666666664
			],
			"type":"SCALAR"
		},
		{
			"bufferView":14,
			"componentType":5126,
			"count":24,
			"type":"VEC4"
		},
		{
			"bufferView":15,
			"componentType":5126,
			"count":2,
			"type":"VEC3"
		},
		{
			"bufferView":16,
			"componentType":5126,
			"count":2,
			"type":"VEC3"
		},
		{
			"bufferView":17,
			"componentType":5126,
			"count":2,
			"type":"VEC4"
		},
		{
			"bufferView":18,
			"componentType":5126,
			"count":2,
			"type":"VEC3"
		},
		{
			"bufferView":19,
			"componentType":5126,
			"count":2,
			"type":"VEC3"
		},
		{
			"bufferView":20,
			"componentType":5126,
			"count":2,
			"type":"VEC4"
		},
		{
			"bufferView":21,
			"componentType":5126,
			"count":2,
			"type":"VEC3"
		},
		{
			"bufferView":22,
			"componentType":5126,
			"count":2,
			"type":"VEC3"
		},
		{
			"bufferView":23,
			"componentType":5126,
			"count":2,
			"type":"VEC4"
		},
		{
			"bufferView":24,
			"componentType":5126,
			"count":2,
			"type":"VEC3"
		},
		{
			"bufferView":25,
			"componentType":5126,
			"count":2,
			"type":"VEC3"
		},
		{
			"bufferView":26,
			"componentType":5126,
			"count":2,
			"type":"VEC4"
		},
		{
			"bufferView":27,
			"componentType":5126,
			"count":2,
			"type":"VEC3"
		},
		{
			"bufferView":28,
			"componentType":5126,
			"count":2,
			"type":"VEC3"
		},
		{
			"bufferView":29,
			"componentType":5126,
			"count":2,
			"type":"VEC4"
		},
		{
			"bufferView":30,
			"componentType":5126,
			"count":2,
			"type":"VEC3"
		},
		{
			"bufferView":31,
			"componentType":5126,
			"count":2,
			"type":"VEC3"
		},
		{
			"bufferView":32,
			"componentType":5126,
			"count":2,
			"type":"VEC4"
		},
		{
			"bufferView":33,
			"componentType":5126,
			"count":2,
			"type":"VEC3"
		},
		{
			"bufferView":34,
			"componentType":5126,
			"count":2,
			"type":"VEC3"
		},
		{
			"bufferView":35,
			"componentType":5126,
			"count":2,
			"type":"VEC4"
		},
		{
			"bufferView":36,
			"componentType":5126,
			"count":2,
			"type":"VEC3"
		},
		{
			"bufferView":37,
			"componentType":5126,
			"count":2,
			"type":"VEC3"
		},
		{
			"bufferView":38,
			"componentType":5126,
			"count":2,
			"type":"VEC4"
		},
		{
			"bufferView":39,
			"componentType":5126,
			"count":2,
			"type":"VEC3"
		},
		{
			"bufferView":40,
			"componentType":5126,
			"count":1,
			"max":[
				0.041666666666666664
			],
			"min":[
				0.041666666666666664
			],
			"type":"SCALAR"
		},
		{
			"bufferView":41,
			"componentType":5126,
			"count":1,
			"type":"VEC3"
		},
		{
			"bufferView":42,
			"componentType":5126,
			"count":1,
			"type":"VEC4"
		},
		{
			"bufferView":43,
			"componentType":5126,
			"count":1,
			"type":"VEC3"
		},
		{
			"bufferView":44,
			"componentType":5126,
			"count":1,
			"type":"VEC3"
		},
		{
			"bufferView":45,
			"componentType":5126,
			"count":1,
			"type":"VEC4"
		},
		{
			"bufferView":46,
			"componentType":5126,
			"count":1,
			"type":"VEC3"
		},
		{
			"bufferView":47,
			"componentType":5126,
			"count":1,
			"type":"VEC3"
		},
		{
			"bufferView":48,
			"componentType":5126,
			"count":1,
			"type":"VEC4"
		},
		{
			"bufferView":49,
			"componentType":5126,
			"count":1,
			"type":"VEC3"
		},
		{
			"bufferView":50,
			"componentType":5126,
			"count":1,
			"type":"VEC3"
		},
		{
			"bufferView":51,
			"componentType":5126,
			"count":1,
			"type":"VEC4"
		},
		{
			"bufferView":52,
			"componentType":5126,
			"count":1,
			"type":"VEC3"
		},
		{
			"bufferView":53,
			"componentType":5126,
			"count":1,
			"type":"VEC3"
		},
		{
			"bufferView":54,
			"componentType":5126,
			"count":1,
			"type":"VEC4"
		},
		{
			"bufferView":55,
			"componentType":5126,
			"count":1,
			"type":"VEC3"
		},
		{
			"bufferView":56,
			"componentType":5126,
			"count":1,
			"type":"VEC3"
		},
		{
			"bufferView":57,
			"componentType":5126,
			"count":1,
			"type":"VEC4"
		},
		{
			"bufferView":58,
			"componentType":5126,
			"count":1,
			"type":"VEC3"
		},
		{
			"bufferView":59,
			"componentType":5126,
			"count":1,
			"type":"VEC3"
		},
		{
			"bufferView":60,
			"componentType":5126,
			"count":1,
			"type":"VEC4"
		},
		{
			"bufferView":61,
			"componentType":5126,
			"count":1,
			"type":"VEC3"
		},
		{
			"bufferView":62,
			"componentType":5126,
			"count":1,
			"type":"VEC3"
		},
		{
			"bufferView":63,
			"componentType":5126,
			"count":1,
			"type":"VEC4"
		},
		{
			"bufferView":64,
			"componentType":5126,
			"count":1,
			"type":"VEC3"
		},
		{
			"bufferView":65,
			"componentType":5126,
			"count":1,
			"type":"VEC3"
		},
		{
			"bufferView":66,
			"componentType":5126,
			"count":1,
			"type":"VEC4"
		},
		{
			"bufferView":67,
			"componentType":5126,
			"count":1,
			"type":"VEC3"
		},
		{
			"bufferView":68,
			"componentType":5126,
			"count":1,
			"type":"VEC4"
		},
		{
			"bufferView":69,
			"componentType":5126,
			"count":1,
			"type":"VEC3"
		}
	],
	"bufferViews":[
		{
			"buffer":0,
			"byteLength":4224,
			"byteOffset":0,
			"target":34962
		},
		{
			"buffer":0,
			"byteLength":4224,
			"byteOffset":4224,
			"target":34962
		},
		{
			"buffer":0,
			"byteLength":2816,
			"byteOffset":8448,
			"target":34962
		},
		{
			"buffer":0,
			"byteLength":2816,
			"byteOffset":11264,
			"target":34962
		},
		{
			"buffer":0,
			"byteLength":1408,
			"byteOffset":14080,
			"target":34962
		},
		{
			"buffer":0,
			"byteLength":5632,
			"byteOffset":15488,
			"target":34962
		},
		{
			"buffer":0,
			"byteLength":1920,
			"byteOffset":21120,
			"target":34963
		},
		{
			"buffer":0,
			"byteLength":640,
			"byteOffset":23040
		},
		{
			"buffer":0,
			"byteLength":8,
			"byteOffset":23680
		},
		{
			"buffer":0,
			"byteLength":24,
			"byteOffset":23688
		},
		{
			"buffer":0,
			"byteLength":32,
			"byteOffset":23712
		},
		{
			"buffer":0,
			"byteLength":24,
			"byteOffset":23744
		},
		{
			"buffer":0,
			"byteLength":24,
			"byteOffset":23768
		},
		{
			"buffer":0,
			"byteLength":96,
			"byteOffset":23792
		},
		{
			"buffer":0,
			"byteLength":384,
			"byteOffset":23888
		},
		{
			"buffer":0,
			"byteLength":24,
			"byteOffset":24272
		},
		{
			"buffer":0,
			"byteLength":24,
			"byteOffset":24296
		},
		{
			"buffer":0,
			"byteLength":32,
			"byteOffset":24320
		},
		{
			"buffer":0,
			"byteLength":24,
			"byteOffset":24352
		},
		{
			"buffer":0,
			"byteLength":24,
			"byteOffset":24376
		},
		{
			"buffer":0,
			"byteLength":32,
			"byteOffset":24400
		},
		{
			"buffer":0,
			"byteLength":24,
			"byteOffset":24432
		},
		{
			"buffer":0,
			"byteLength":24,
			"byteOffset":24456
		},
		{
			"buffer":0,
			"byteLength":32,
			"byteOffset":24480
		},
		{
			"buffer":0,
			"byteLength":24,
			"byteOffset":24512
		},
		{
			"buffer":0,
			"byteLength":24,
			"byteOffset":24536
		},
		{
			"buffer":0,
			"byteLength":32,
			"byteOffset":24560
		},
		{
			"buffer":0,
			"byteLength":24,
			"byteOffset":24592
		},
		{
			"buffer":0,
			"byteLength":24,
			"byteOffset":24616
		},
		{
			"buffer":0,
			"byteLength":32,
			"byteOffset":24640
		},
		{
			"buffer":0,
			"byteLength":24,
			"byteOffset":24672
		},
		{
			"buffer":0,
			"byteLength":24,
			"byteOffset":24696
		},
		{
			"buffer":0,
			"byteLength":32,
			"byteOffset":24720
		},
		{
			"buffer":0,
			"byteLength":24,
			"byteOffset":24752
		},
		{
			"buffer":0,
			"byteLength":24,
			"byteOffset":24776
		},
		{
			"buffer":0,
			"byteLength":32,
			"byteOffset":24800
		},
		{
			"buffer":0,
			"byteLength":24,
			"byteOffset":24832
		},
		{
			"buffer":0,
			"byteLength":24,
			"byteOffset":24856
		},
		{
			"buffer":0,
			"byteLength":32,
			"byteOffset":24880
		},
		{
			"buffer":0,
			"byteLength":24,
			"byteOffset":24912
		},
		{
			"buffer":0,
			"byteLength":4,
			"byteOffset":24936
		},
		{
			"buffer":0,
			"byteLength":12,
			"byteOffset":24940
		},
		{
			"buffer":0,
			"byteLength":16,
			"byteOffset":24952
		},
		{
			"buffer":0,
			"byteLength":12,
			"byteOffset":24968
		},
		{
			"buffer":0,
			"byteLength":12,
			"byteOffset":24980
		},
		{
			"buffer":0,
			"byteLength":16,
			"byteOffset":24992
		},
		{
			"buffer":0,
			"byteLength":12,
			"byteOffset":25008
		},
		{
			"buffer":0,
			"byteLength":12,
			"byteOffset":25020
		},
		{
			"buffer":0,
			"byteLength":16,
			"byteOffset":25032
		},
		{
			"buffer":0,
			"byteLength":12,
			"byteOffset":25048
		},
		{
			"buffer":0,
			"byteLength":12,
			"byteOffset":25060
		},
		{
			"buffer":0,
			"byteLength":16,
			"byteOffset":25072
		},
		{
			"buffer":0,
			"byteLength":12,
			"byteOffset":25088
		},
		{
			"buffer":0,
			"byteLength":12,
			"byteOffset":25100
		},
		{
			"buffer":0,
			"byteLength":16,
			"byteOffset":25112
		},
		{
			"buffer":0,
			"byteLength":12,
			"byteOffset":25128
		},
		{
			"buffer":0,
			"byteLength":12,
			"byteOffset":25140
		},
		{
			"buffer":0,
			"byteLength":16,
			"byteOffset":25152
		},
		{
			"buffer":0,
			"byteLength":12,
			"byteOffset":25168
		},
		{
			"buffer":0,
			"byteLength":12,
			"byteOffset":25180
		},
		{
			"buffer":0,
			"byteLength":16,
			"byteOffset":25192
		},
		{
			"buffer":0,
			"byteLength":12,
			"byteOffset":25208
		},
		{
			"buffer":0,
			"byteLength":12,
			"byteOffset":25220
		},
		{
			"buffer":0,
			"byteLength":16,
			"byteOffset":25232
		},
		{
			"buffer":0,
			"byteLength":12,
			"byteOffset":25248
		},
		{
			"buffer":0,
			"byteLength":12,
			"byteOffset":25260
		},
		{
			"buffer":0,
			"byteLength":16,
			"byteOffset":25272
		},
		{
			"buffer":0,
			"byteLength":12,
			"byteOffset":25288
		},
		{
			"buffer":0,
			"byteLength":16,
			"byteOffset":25300
		},
		{
			"buffer":0,
			"byteLength":12,
			"byteOffset":25316
		}
	],
	"buffers":[
		{
			"byteLength":25328,
			"uri":"left-hand.bin"
		}
	]
}
