{
	"asset":{
		"generator":"Khronos glTF Blender I/O v5.0.21",
		"version":"2.0"
	},
	"scene":0,
	"scenes":[
		{
			"name":"Scene",
			"nodes":[
				0,
				11
			]
		}
	],
	"nodes":[
		{
			"mesh":0,
			"name":"Arm"
		},
		{
			"name":"Bone.05",
			"rotation":[
				0,
				0,
				0.13465647399425507,
				0.9908923506736755
			],
			"scale":[
				1.0000001192092896,
				1,
				1
			],
			"translation":[
				1.0244548320770264e-08,
				0.0548507459461689,
				0
			]
		},
		{
			"children":[
				1
			],
			"name":"Bone.00",
			"rotation":[
				0,
				0,
				-0.15662682056427002,
				0.987657904624939
			],
			"scale":[
				0.9999999403953552,
				0.9999999403953552,
				1
			],
			"translation":[
				0,
				0.2591955065727234,
				0
			]
		},
		{
			"name":"Bone.01",
			"rotation":[
				0,
				0,
				0.3494528532028198,
				0.9369539618492126
			],
			"translation":[
				1.1175870895385742e-08,
				0.05370337516069412,
				0
			]
		},
		{
			"children":[
				3
			],
			"name":"Bone.02",
			"rotation":[
				0,
				0,
				-0.39569222927093506,
				0.9183831810951233
			],
			"scale":[
				1,
				1.0000001192092896,
				1
			],
			"translation":[
				0,
				0.2591955065727234,
				0
			]
		},
		{
			"name":"Bone.07",
			"rotation":[
				0,
				0,
				-0.08396513760089874,
				0.9964686632156372
			],
			"scale":[
				1,
				1.0000001192092896,
				1
			],
			"translation":[
				-6.51925802230835e-09,
				0.06084761396050453,
				0
			]
		},
		{
			"children":[
				5
			],
			"name":"Bone.06",
			"rotation":[
				0,
				0,
				0.08396514505147934,
				0.9964686632156372
			],
			"translation":[
				0,
				0.2591955065727234,
				0
			]
		},
		{
			"name":"Bone.09",
			"rotation":[
				0,
				0,
				-0.3600021302700043,
				0.9329515099525452
			],
			"scale":[
				1,
				0.9999999403953552,
				1
			],
			"translation":[
				-5.587935447692871e-09,
				0.04768316075205803,
				0
			]
		},
		{
			"children":[
				7
			],
			"name":"Bone.08",
			"rotation":[
				0,
				0,
				0.3857489228248596,
				0.9226037859916687
			],
			"translation":[
				0,
				0.2591955065727234,
				0
			]
		},
		{
			"children":[
				2,
				4,
				6,
				8
			],
			"name":"Bone.03",
			"translation":[
				0,
				0.17999927699565887,
				0
			]
		},
		{
			"children":[
				9
			],
			"name":"Bone.04",
			"rotation":[
				-0.7071067690849304,
				0,
				0,
				0.7071067690849304
			],
			"translation":[
				-0.003903128206729889,
				0,
				0
			]
		},
		{
			"children":[
				10
			],
			"name":"Arm-Armature"
		}
	],
	"animations":[
		{
			"channels":[
				{
					"sampler":0,
					"target":{
						"node":10,
						"path":"translation"
					}
				},
				{
					"sampler":1,
					"target":{
						"node":10,
						"path":"rotation"
					}
				},
				{
					"sampler":2,
					"target":{
						"node":10,
						"path":"scale"
					}
				},
				{
					"sampler":3,
					"target":{
						"node":9,
						"path":"translation"
					}
				},
				{
					"sampler":4,
					"target":{
						"node":9,
						"path":"rotation"
					}
				},
				{
					"sampler":5,
					"target":{
						"node":9,
						"path":"scale"
					}
				},
				{
					"sampler":6,
					"target":{
						"node":2,
						"path":"translation"
					}
				},
				{
					"sampler":7,
					"target":{
						"node":2,
						"path":"rotation"
					}
				},
				{
					"sampler":8,
					"target":{
						"node":2,
						"path":"scale"
					}
				},
				{
					"sampler":9,
					"target":{
						"node":1,
						"path":"translation"
					}
				},
				{
					"sampler":10,
					"target":{
						"node":1,
						"path":"rotation"
					}
				},
				{
					"sampler":11,
					"target":{
						"node":1,
						"path":"scale"
					}
				},
				{
					"sampler":12,
					"target":{
						"node":4,
						"path":"translation"
					}
				},
				{
					"sampler":13,
					"target":{
						"node":4,
						"path":"rotation"
					}
				},
				{
					"sampler":14,
					"target":{
						"node":4,
						"path":"scale"
					}
				},
				{
					"sampler":15,
					"target":{
						"node":3,
						"path":"translation"
					}
				},
				{
					"sampler":16,
					"target":{
						"node":3,
						"path":"rotation"
					}
				},
				{
					"sampler":17,
					"target":{
						"node":3,
						"path":"scale"
					}
				},
				{
					"sampler":18,
					"target":{
						"node":6,
						"path":"translation"
					}
				},
				{
					"sampler":19,
					"target":{
						"node":6,
						"path":"rotation"
					}
				},
				{
					"sampler":20,
					"target":{
						"node":6,
						"path":"scale"
					}
				},
				{
					"sampler":21,
					"target":{
						"node":5,
						"path":"translation"
					}
				},
				{
					"sampler":22,
					"target":{
						"node":5,
						"path":"rotation"
					}
				},
				{
					"sampler":23,
					"target":{
						"node":5,
						"path":"scale"
					}
				},
				{
					"sampler":24,
					"target":{
						"node":8,
						"path":"translation"
					}
				},
				{
					"sampler":25,
					"target":{
						"node":8,
						"path":"rotation"
					}
				},
				{
					"sampler":26,
					"target":{
						"node":8,
						"path":"scale"
					}
				},
				{
					"sampler":27,
					"target":{
						"node":7,
						"path":"translation"
					}
				},
				{
					"sampler":28,
					"target":{
						"node":7,
						"path":"rotation"
					}
				},
				{
					"sampler":29,
					"target":{
						"node":7,
						"path":"scale"
					}
				}
			],
			"name":"chop",
			"samplers":[
				{
					"input":6,
					"interpolation":"STEP",
					"output":7
				},
				{
					"input":6,
					"interpolation":"STEP",
					"output":8
				},
				{
					"input":6,
					"interpolation":"STEP",
					"output":9
				},
				{
					"input":6,
					"interpolation":"STEP",
					"output":10
				},
				{
					"input":11,
					"interpolation":"LINEAR",
					"output":12
				},
				{
					"input":6,
					"interpolation":"STEP",
					"output":13
				},
				{
					"input":6,
					"interpolation":"STEP",
					"output":14
				},
				{
					"input":6,
					"interpolation":"STEP",
					"output":15
				},
				{
					"input":6,
					"interpolation":"STEP",
					"output":16
				},
				{
					"input":6,
					"interpolation":"STEP",
					"output":17
				},
				{
					"input":6,
					"interpolation":"STEP",
					"output":18
				},
				{
					"input":6,
					"interpolation":"STEP",
					"output":19
				},
				{
					"input":6,
					"interpolation":"STEP",
					"output":20
				},
				{
					"input":6,
					"interpolation":"STEP",
					"output":21
				},
				{
					"input":6,
					"interpolation":"STEP",
					"output":22
				},
				{
					"input":6,
					"interpolation":"STEP",
					"output":23
				},
				{
					"input":6,
					"interpolation":"STEP",
					"output":24
				},
				{
					"input":6,
					"interpolation":"STEP",
					"output":25
				},
				{
					"input":6,
					"interpolation":"STEP",
					"output":26
				},
				{
					"input":6,
					"interpolation":"STEP",
					"output":27
				},
				{
					"input":6,
					"interpolation":"STEP",
					"output":28
				},
				{
					"input":6,
					"interpolation":"STEP",
					"output":29
				},
				{
					"input":6,
					"interpolation":"STEP",
					"output":30
				},
				{
					"input":6,
					"interpolation":"STEP",
					"output":31
				},
				{
					"input":6,
					"interpolation":"STEP",
					"output":32
				},
				{
					"input":6,
					"interpolation":"STEP",
					"output":33
				},
				{
					"input":6,
					"interpolation":"STEP",
					"output":34
				},
				{
					"input":6,
					"interpolation":"STEP",
					"output":35
				},
				{
					"input":6,
					"interpolation":"STEP",
					"output":36
				},
				{
					"input":6,
					"interpolation":"STEP",
					"output":37
				}
			]
		},
		{
			"channels":[
				{
					"sampler":0,
					"target":{
						"node":10,
						"path":"translation"
					}
				},
				{
					"sampler":1,
					"target":{
						"node":10,
						"path":"rotation"
					}
				},
				{
					"sampler":2,
					"target":{
						"node":10,
						"path":"scale"
					}
				},
				{
					"sampler":3,
					"target":{
						"node":9,
						"path":"translation"
					}
				},
				{
					"sampler":4,
					"target":{
						"node":9,
						"path":"rotation"
					}
				},
				{
					"sampler":5,
					"target":{
						"node":9,
						"path":"scale"
					}
				},
				{
					"sampler":6,
					"target":{
						"node":2,
						"path":"translation"
					}
				},
				{
					"sampler":7,
					"target":{
						"node":2,
						"path":"rotation"
					}
				},
				{
					"sampler":8,
					"target":{
						"node":2,
						"path":"scale"
					}
				},
				{
					"sampler":9,
					"target":{
						"node":1,
						"path":"translation"
					}
				},
				{
					"sampler":10,
					"target":{
						"node":1,
						"path":"rotation"
					}
				},
				{
					"sampler":11,
					"target":{
						"node":1,
						"path":"scale"
					}
				},
				{
					"sampler":12,
					"target":{
						"node":4,
						"path":"translation"
					}
				},
				{
					"sampler":13,
					"target":{
						"node":4,
						"path":"rotation"
					}
				},
				{
					"sampler":14,
					"target":{
						"node":4,
						"path":"scale"
					}
				},
				{
					"sampler":15,
					"target":{
						"node":3,
						"path":"translation"
					}
				},
				{
					"sampler":16,
					"target":{
						"node":3,
						"path":"rotation"
					}
				},
				{
					"sampler":17,
					"target":{
						"node":3,
						"path":"scale"
					}
				},
				{
					"sampler":18,
					"target":{
						"node":6,
						"path":"translation"
					}
				},
				{
					"sampler":19,
					"target":{
						"node":6,
						"path":"rotation"
					}
				},
				{
					"sampler":20,
					"target":{
						"node":6,
						"path":"scale"
					}
				},
				{
					"sampler":21,
					"target":{
						"node":5,
						"path":"translation"
					}
				},
				{
					"sampler":22,
					"target":{
						"node":5,
						"path":"rotation"
					}
				},
				{
					"sampler":23,
					"target":{
						"node":5,
						"path":"scale"
					}
				},
				{
					"sampler":24,
					"target":{
						"node":8,
						"path":"translation"
					}
				},
				{
					"sampler":25,
					"target":{
						"node":8,
						"path":"rotation"
					}
				},
				{
					"sampler":26,
					"target":{
						"node":8,
						"path":"scale"
					}
				},
				{
					"sampler":27,
					"target":{
						"node":7,
						"path":"translation"
					}
				},
				{
					"sampler":28,
					"target":{
						"node":7,
						"path":"rotation"
					}
				},
				{
					"sampler":29,
					"target":{
						"node":7,
						"path":"scale"
					}
				}
			],
			"name":"idle",
			"samplers":[
				{
					"input":6,
					"interpolation":"STEP",
					"output":7
				},
				{
					"input":6,
					"interpolation":"STEP",
					"output":8
				},
				{
					"input":6,
					"interpolation":"STEP",
					"output":9
				},
				{
					"input":6,
					"interpolation":"STEP",
					"output":10
				},
				{
					"input":6,
					"interpolation":"STEP",
					"output":38
				},
				{
					"input":6,
					"interpolation":"STEP",
					"output":13
				},
				{
					"input":6,
					"interpolation":"STEP",
					"output":39
				},
				{
					"input":6,
					"interpolation":"STEP",
					"output":40
				},
				{
					"input":6,
					"interpolation":"STEP",
					"output":41
				},
				{
					"input":6,
					"interpolation":"STEP",
					"output":42
				},
				{
					"input":6,
					"interpolation":"STEP",
					"output":43
				},
				{
					"input":6,
					"interpolation":"STEP",
					"output":44
				},
				{
					"input":6,
					"interpolation":"STEP",
					"output":45
				},
				{
					"input":6,
					"interpolation":"STEP",
					"output":46
				},
				{
					"input":6,
					"interpolation":"STEP",
					"output":47
				},
				{
					"input":6,
					"interpolation":"STEP",
					"output":48
				},
				{
					"input":6,
					"interpolation":"STEP",
					"output":49
				},
				{
					"input":6,
					"interpolation":"STEP",
					"output":50
				},
				{
					"input":6,
					"interpolation":"STEP",
					"output":51
				},
				{
					"input":6,
					"interpolation":"STEP",
					"output":52
				},
				{
					"input":6,
					"interpolation":"STEP",
					"output":53
				},
				{
					"input":6,
					"interpolation":"STEP",
					"output":54
				},
				{
					"input":6,
					"interpolation":"STEP",
					"output":55
				},
				{
					"input":6,
					"interpolation":"STEP",
					"output":56
				},
				{
					"input":6,
					"interpolation":"STEP",
					"output":57
				},
				{
					"input":6,
					"interpolation":"STEP",
					"output":58
				},
				{
					"input":6,
					"interpolation":"STEP",
					"output":47
				},
				{
					"input":6,
					"interpolation":"STEP",
					"output":59
				},
				{
					"input":6,
					"interpolation":"STEP",
					"output":60
				},
				{
					"input":6,
					"interpolation":"STEP",
					"output":61
				}
			]
		}
	],
	"materials":[
		{
			"doubleSided":true,
			"name":"Arm",
			"pbrMetallicRoughness":{
				"baseColorTexture":{
					"index":0
				},
				"metallicFactor":0,
				"roughnessFactor":0.5
			}
		}
	],
	"meshes":[
		{
			"name":"Plane",
			"primitives":[
				{
					"attributes":{
						"POSITION":0,
						"NORMAL":1,
						"TEXCOORD_0":2,
						"COLOR_0":3,
						"COLOR_1":4
					},
					"indices":5,
					"material":0
				}
			]
		}
	],
	"textures":[
		{
			"sampler":0,
			"source":0
		}
	],
	"images":[
		{
			"mimeType":"image/png",
			"name":"arm",
			"uri":"arm.png"
		}
	],
	"accessors":[
		{
			"bufferView":0,
			"componentType":5126,
			"count":352,
			"max":[
				0.04787614196538925,
				0.017262568697333336,
				0
			],
			"min":[
				-0.04512133076786995,
				-0.017262568697333336,
				-0.5680148005485535
			],
			"type":"VEC3"
		},
		{
			"bufferView":1,
			"componentType":5126,
			"count":352,
			"type":"VEC3"
		},
		{
			"bufferView":2,
			"componentType":5126,
			"count":352,
			"type":"VEC2"
		},
		{
			"bufferView":3,
			"componentType":5121,
			"count":352,
			"normalized":true,
			"type":"VEC4"
		},
		{
			"bufferView":4,
			"componentType":5123,
			"count":352,
			"normalized":true,
			"type":"VEC4"
		},
		{
			"bufferView":5,
			"componentType":5123,
			"count":960,
			"type":"SCALAR"
		},
		{
			"bufferView":6,
			"componentType":5126,
			"count":2,
			"max":[
				0.4166666666666667
			],
			"min":[
				0.041666666666666664
			],
			"type":"SCALAR"
		},
		{
			"bufferView":7,
			"componentType":5126,
			"count":2,
			"type":"VEC3"
		},
		{
			"bufferView":8,
			"componentType":5126,
			"count":2,
			"type":"VEC4"
		},
		{
			"bufferView":9,
			"componentType":5126,
			"count":2,
			"type":"VEC3"
		},
		{
			"bufferView":10,
			"componentType":5126,
			"count":2,
			"type":"VEC3"
		},
		{
			"bufferView":11,
			"componentType":5126,
			"count":10,
			"max":[
				0.4166666666666667
			],
			"min":[
				0.041666666666666664
			],
			"type":"SCALAR"
		},
		{
			"bufferView":12,
			"componentType":5126,
			"count":10,
			"type":"VEC4"
		},
		{
			"bufferView":13,
			"componentType":5126,
			"count":2,
			"type":"VEC3"
		},
		{
			"bufferView":14,
			"componentType":5126,
			"count":2,
			"type":"VEC3"
		},
		{
			"bufferView":15,
			"componentType":5126,
			"count":2,
			"type":"VEC4"
		},
		{
			"bufferView":16,
			"componentType":5126,
			"count":2,
			"type":"VEC3"
		},
		{
			"bufferView":17,
			"componentType":5126,
			"count":2,
			"type":"VEC3"
		},
		{
			"bufferView":18,
			"componentType":5126,
			"count":2,
			"type":"VEC4"
		},
		{
			"bufferView":19,
			"componentType":5126,
			"count":2,
			"type":"VEC3"
		},
		{
			"bufferView":20,
			"componentType":5126,
			"count":2,
			"type":"VEC3"
		},
		{
			"bufferView":21,
			"componentType":5126,
			"count":2,
			"type":"VEC4"
		},
		{
			"bufferView":22,
			"componentType":5126,
			"count":2,
			"type":"VEC3"
		},
		{
			"bufferView":23,
			"componentType":5126,
			"count":2,
			"type":"VEC3"
		},
		{
			"bufferView":24,
			"componentType":5126,
			"count":2,
			"type":"VEC4"
		},
		{
			"bufferView":25,
			"componentType":5126,
			"count":2,
			"type":"VEC3"
		},
		{
			"bufferView":26,
			"componentType":5126,
			"count":2,
			"type":"VEC3"
		},
		{
			"bufferView":27,
			"componentType":5126,
			"count":2,
			"type":"VEC4"
		},
		{
			"bufferView":28,
			"componentType":5126,
			"count":2,
			"type":"VEC3"
		},
		{
			"bufferView":29,
			"componentType":5126,
			"count":2,
			"type":"VEC3"
		},
		{
			"bufferView":30,
			"componentType":5126,
			"count":2,
			"type":"VEC4"
		},
		{
			"bufferView":31,
			"componentType":5126,
			"count":2,
			"type":"VEC3"
		},
		{
			"bufferView":32,
			"componentType":5126,
			"count":2,
			"type":"VEC3"
		},
		{
			"bufferView":33,
			"componentType":5126,
			"count":2,
			"type":"VEC4"
		},
		{
			"bufferView":34,
			"componentType":5126,
			"count":2,
			"type":"VEC3"
		},
		{
			"bufferView":35,
			"componentType":5126,
			"count":2,
			"type":"VEC3"
		},
		{
			"bufferView":36,
			"componentType":5126,
			"count":2,
			"type":"VEC4"
		},
		{
			"bufferView":37,
			"componentType":5126,
			"count":2,
			"type":"VEC3"
		},
		{
			"bufferView":38,
			"componentType":5126,
			"count":2,
			"type":"VEC4"
		},
		{
			"bufferView":39,
			"componentType":5126,
			"count":2,
			"type":"VEC3"
		},
		{
			"bufferView":40,
			"componentType":5126,
			"count":2,
			"type":"VEC4"
		},
		{
			"bufferView":41,
			"componentType":5126,
			"count":2,
			"type":"VEC3"
		},
		{
			"bufferView":42,
			"componentType":5126,
			"count":2,
			"type":"VEC3"
		},
		{
			"bufferView":43,
			"componentType":5126,
			"count":2,
			"type":"VEC4"
		},
		{
			"bufferView":44,
			"componentType":5126,
			"count":2,
			"type":"VEC3"
		},
		{
			"bufferView":45,
			"componentType":5126,
			"count":2,
			"type":"VEC3"
		},
		{
			"bufferView":46,
			"componentType":5126,
			"count":2,
			"type":"VEC4"
		},
		{
			"bufferView":47,
			"componentType":5126,
			"count":2,
			"type":"VEC3"
		},
		{
			"bufferView":48,
			"componentType":5126,
			"count":2,
			"type":"VEC3"
		},
		{
			"bufferView":49,
			"componentType":5126,
			"count":2,
			"type":"VEC4"
		},
		{
			"bufferView":50,
			"componentType":5126,
			"count":2,
			"type":"VEC3"
		},
		{
			"bufferView":51,
			"componentType":5126,
			"count":2,
			"type":"VEC3"
		},
		{
			"bufferView":52,
			"componentType":5126,
			"count":2,
			"type":"VEC4"
		},
		{
			"bufferView":53,
			"componentType":5126,
			"count":2,
			"type":"VEC3"
		},
		{
			"bufferView":54,
			"componentType":5126,
			"count":2,
			"type":"VEC3"
		},
		{
			"bufferView":55,
			"componentType":5126,
			"count":2,
			"type":"VEC4"
		},
		{
			"bufferView":56,
			"componentType":5126,
			"count":2,
			"type":"VEC3"
		},
		{
			"bufferView":57,
			"componentType":5126,
			"count":2,
			"type":"VEC3"
		},
		{
			"bufferView":58,
			"componentType":5126,
			"count":2,
			"type":"VEC4"
		},
		{
			"bufferView":59,
			"componentType":5126,
			"count":2,
			"type":"VEC3"
		},
		{
			"bufferView":60,
			"componentType":5126,
			"count":2,
			"type":"VEC4"
		},
		{
			"bufferView":61,
			"componentType":5126,
			"count":2,
			"type":"VEC3"
		}
	],
	"bufferViews":[
		{
			"buffer":0,
			"byteLength":4224,
			"byteOffset":0,
			"target":34962
		},
		{
			"buffer":0,
			"byteLength":4224,
			"byteOffset":4224,
			"target":34962
		},
		{
			"buffer":0,
			"byteLength":2816,
			"byteOffset":8448,
			"target":34962
		},
		{
			"buffer":0,
			"byteLength":1408,
			"byteOffset":11264,
			"target":34962
		},
		{
			"buffer":0,
			"byteLength":2816,
			"byteOffset":12672,
			"target":34962
		},
		{
			"buffer":0,
			"byteLength":1920,
			"byteOffset":15488,
			"target":34963
		},
		{
			"buffer":0,
			"byteLength":8,
			"byteOffset":17408
		},
		{
			"buffer":0,
			"byteLength":24,
			"byteOffset":17416
		},
		{
			"buffer":0,
			"byteLength":32,
			"byteOffset":17440
		},
		{
			"buffer":0,
			"byteLength":24,
			"byteOffset":17472
		},
		{
			"buffer":0,
			"byteLength":24,
			"byteOffset":17496
		},
		{
			"buffer":0,
			"byteLength":40,
			"byteOffset":17520
		},
		{
			"buffer":0,
			"byteLength":160,
			"byteOffset":17560
		},
		{
			"buffer":0,
			"byteLength":24,
			"byteOffset":17720
		},
		{
			"buffer":0,
			"byteLength":24,
			"byteOffset":17744
		},
		{
			"buffer":0,
			"byteLength":32,
			"byteOffset":17768
		},
		{
			"buffer":0,
			"byteLength":24,
			"byteOffset":17800
		},
		{
			"buffer":0,
			"byteLength":24,
			"byteOffset":17824
		},
		{
			"buffer":0,
			"byteLength":32,
			"byteOffset":17848
		},
		{
			"buffer":0,
			"byteLength":24,
			"byteOffset":17880
		},
		{
			"buffer":0,
			"byteLength":24,
			"byteOffset":17904
		},
		{
			"buffer":0,
			"byteLength":32,
			"byteOffset":17928
		},
		{
			"buffer":0,
			"byteLength":24,
			"byteOffset":17960
		},
		{
			"buffer":0,
			"byteLength":24,
			"byteOffset":17984
		},
		{
			"buffer":0,
			"byteLength":32,
			"byteOffset":18008
		},
		{
			"buffer":0,
			"byteLength":24,
			"byteOffset":18040
		},
		{
			"buffer":0,
			"byteLength":24,
			"byteOffset":18064
		},
		{
			"buffer":0,
			"byteLength":32,
			"byteOffset":18088
		},
		{
			"buffer":0,
			"byteLength":24,
			"byteOffset":18120
		},
		{
			"buffer":0,
			"byteLength":24,
			"byteOffset":18144
		},
		{
			"buffer":0,
			"byteLength":32,
			"byteOffset":18168
		},
		{
			"buffer":0,
			"byteLength":24,
			"byteOffset":18200
		},
		{
			"buffer":0,
			"byteLength":24,
			"byteOffset":18224
		},
		{
			"buffer":0,
			"byteLength":32,
			"byteOffset":18248
		},
		{
			"buffer":0,
			"byteLength":24,
			"byteOffset":18280
		},
		{
			"buffer":0,
			"byteLength":24,
			"byteOffset":18304
		},
		{
			"buffer":0,
			"byteLength":32,
			"byteOffset":18328
		},
		{
			"buffer":0,
			"byteLength":24,
			"byteOffset":18360
		},
		{
			"buffer":0,
			"byteLength":32,
			"byteOffset":18384
		},
		{
			"buffer":0,
			"byteLength":24,
			"byteOffset":18416
		},
		{
			"buffer":0,
			"byteLength":32,
			"byteOffset":18440
		},
		{
			"buffer":0,
			"byteLength":24,
			"byteOffset":18472
		},
		{
			"buffer":0,
			"byteLength":24,
			"byteOffset":18496
		},
		{
			"buffer":0,
			"byteLength":32,
			"byteOffset":18520
		},
		{
			"buffer":0,
			"byteLength":24,
			"byteOffset":18552
		},
		{
			"buffer":0,
			"byteLength":24,
			"byteOffset":18576
		},
		{
			"buffer":0,
			"byteLength":32,
			"byteOffset":18600
		},
		{
			"buffer":0,
			"byteLength":24,
			"byteOffset":18632
		},
		{
			"buffer":0,
			"byteLength":24,
			"byteOffset":18656
		},
		{
			"buffer":0,
			"byteLength":32,
			"byteOffset":18680
		},
		{
			"buffer":0,
			"byteLength":24,
			"byteOffset":18712
		},
		{
			"buffer":0,
			"byteLength":24,
			"byteOffset":18736
		},
		{
			"buffer":0,
			"byteLength":32,
			"byteOffset":18760
		},
		{
			"buffer":0,
			"byteLength":24,
			"byteOffset":18792
		},
		{
			"buffer":0,
			"byteLength":24,
			"byteOffset":18816
		},
		{
			"buffer":0,
			"byteLength":32,
			"byteOffset":18840
		},
		{
			"buffer":0,
			"byteLength":24,
			"byteOffset":18872
		},
		{
			"buffer":0,
			"byteLength":24,
			"byteOffset":18896
		},
		{
			"buffer":0,
			"byteLength":32,
			"byteOffset":18920
		},
		{
			"buffer":0,
			"byteLength":24,
			"byteOffset":18952
		},
		{
			"buffer":0,
			"byteLength":32,
			"byteOffset":18976
		},
		{
			"buffer":0,
			"byteLength":24,
			"byteOffset":19008
		}
	],
	"samplers":[
		{
			"magFilter":9729,
			"minFilter":9987
		}
	],
	"buffers":[
		{
			"byteLength":19032,
			"uri":"left-hand.bin"
		}
	]
}
