{
	"asset":{
		"generator":"Khronos glTF Blender I/O v5.0.21",
		"version":"2.0"
	},
	"scene":0,
	"scenes":[
		{
			"name":"Scene",
			"nodes":[
				0
			]
		}
	],
	"nodes":[
		{
			"mesh":0,
			"name":"Cube"
		}
	],
	"meshes":[
		{
			"name":"Cube",
			"primitives":[
				{
					"attributes":{
						"POSITION":0,
						"NORMAL":1,
						"TEXCOORD_0":2
					},
					"indices":3
				}
			]
		}
	],
	"accessors":[
		{
			"bufferView":0,
			"componentType":5126,
			"count":534,
			"max":[
				1.354573369026184,
				0.45375728607177734,
				0.11845827102661133
			],
			"min":[
				-1.354573369026184,
				-0.45375728607177734,
				-0.17823109030723572
			],
			"type":"VEC3"
		},
		{
			"bufferView":1,
			"componentType":5126,
			"count":534,
			"type":"VEC3"
		},
		{
			"bufferView":2,
			"componentType":5126,
			"count":534,
			"type":"VEC2"
		},
		{
			"bufferView":3,
			"componentType":5123,
			"count":822,
			"type":"SCALAR"
		}
	],
	"bufferViews":[
		{
			"buffer":0,
			"byteLength":6408,
			"byteOffset":0,
			"target":34962
		},
		{
			"buffer":0,
			"byteLength":6408,
			"byteOffset":6408,
			"target":34962
		},
		{
			"buffer":0,
			"byteLength":4272,
			"byteOffset":12816,
			"target":34962
		},
		{
			"buffer":0,
			"byteLength":1644,
			"byteOffset":17088,
			"target":34963
		}
	],
	"buffers":[
		{
			"byteLength":18732,
			"uri":"enemy-mask-butterfly.bin"
		}
	]
}
